<?xml version="1.0" standalone="no"?>
<!DOCTYPE svg PUBLIC "-//W3C//DTD SVG 20010904//EN"
 "http://www.w3.org/TR/2001/REC-SVG-20010904/DTD/svg10.dtd">
<svg version="1.0" xmlns="http://www.w3.org/2000/svg"
 width="180.000000pt" height="180.000000pt" viewBox="0 0 180.000000 180.000000"
 preserveAspectRatio="xMidYMid meet">
<metadata>
Created by potrace 1.14, written by Peter Selinger 2001-2017
</metadata>
<g transform="translate(0.000000,180.000000) scale(0.100000,-0.100000)"
fill="#000000" stroke="none">
<path d="M1339 1527 c-64 -61 -199 -191 -300 -287 -100 -96 -188 -181 -196
-188 -7 -7 -14 -23 -14 -35 -1 -12 -3 -31 -4 -42 -2 -11 -6 -58 -10 -104 l-7
-85 66 52 c36 29 71 52 77 52 6 0 28 -13 48 -28 20 -15 48 -36 63 -45 32 -20
25 -30 108 158 50 115 70 151 70 129 0 -6 -31 -80 -70 -165 -62 -138 -68 -155
-52 -163 9 -5 34 -23 56 -39 l38 -30 30 34 c17 19 57 68 89 111 32 42 72 87
88 100 29 22 30 26 36 133 4 61 8 137 10 171 2 33 6 121 10 195 4 74 9 142 11
152 7 37 -13 14 -40 -45 -15 -35 -27 -64 -26 -66 0 -1 -10 -24 -23 -50 -43
-84 -137 -297 -137 -309 0 -7 -4 -13 -10 -13 -16 0 -12 13 41 126 27 60 54
118 59 129 4 11 17 40 28 65 11 25 30 68 42 95 12 28 28 62 35 78 7 15 10 27
7 27 -4 0 -59 -51 -123 -113z"/>
<path d="M112 1193 c8 -10 108 -126 221 -259 l206 -241 73 1 c71 1 124 18 113
36 -3 5 -83 69 -178 142 -95 73 -176 136 -182 141 -52 42 -259 197 -263 197
-3 0 2 -8 10 -17z"/>
<path d="M1426 935 c-19 -17 -26 -33 -24 -54 2 -25 8 -31 56 -45 29 -10 61
-19 70 -21 9 -2 53 -15 97 -29 67 -21 101 -26 84 -13 -107 87 -239 187 -247
187 -5 0 -21 -11 -36 -25z"/>
<path d="M1350 853 c-14 -20 -29 -41 -35 -47 -36 -39 -168 -211 -168 -220 -1
-6 13 -40 31 -76 17 -36 33 -80 35 -98 2 -18 9 -38 15 -44 7 -7 12 -10 12 -7
0 5 47 165 103 349 57 188 58 219 7 143z"/>
<path d="M833 789 c-100 -78 -119 -99 -89 -99 13 0 179 -73 228 -100 31 -17
36 -11 27 36 -5 25 -11 48 -13 52 -2 4 -7 25 -11 47 -4 22 -8 45 -9 50 -2 6
-7 29 -11 53 -4 23 -10 42 -14 42 -3 -1 -52 -37 -108 -81z"/>
<path d="M990 845 c0 -6 44 -91 63 -119 6 -11 27 -44 45 -73 l33 -54 35 45
c19 25 34 47 34 50 0 5 -64 54 -157 119 -29 21 -53 35 -53 32z"/>
<path d="M1395 827 c-35 -102 -125 -410 -121 -414 1 -2 31 52 66 120 35 67 81
155 102 196 23 43 36 77 31 82 -18 18 -74 29 -78 16z"/>
<path d="M980 815 c-1 -5 -2 -14 -1 -18 1 -4 4 -24 7 -45 4 -20 7 -41 9 -47
31 -135 34 -143 63 -154 15 -5 46 -19 69 -30 l42 -19 -19 32 c-10 18 -24 44
-32 57 -7 13 -15 26 -18 29 -5 5 -21 32 -45 75 -6 11 -22 38 -36 60 -14 22
-28 47 -32 55 -3 8 -6 11 -7 5z"/>
<path d="M446 582 c-170 -174 -265 -276 -262 -280 2 -2 57 15 122 38 66 23
153 53 194 67 160 54 445 155 457 162 12 6 -11 19 -156 84 -45 21 -70 24 -157
25 l-104 0 -94 -96z"/>
<path d="M905 533 c-101 -37 -390 -137 -530 -184 -65 -22 -122 -42 -125 -45
-5 -5 68 3 100 11 8 2 38 6 65 10 54 7 105 14 138 21 12 2 39 6 62 9 22 3 65
10 95 15 94 16 114 19 155 25 147 22 225 39 257 58 44 24 47 34 15 46 -12 5
-47 21 -77 35 -65 31 -66 31 -155 -1z"/>
<path d="M1130 444 c-25 -14 -49 -29 -53 -34 -5 -4 22 -26 59 -49 38 -22 70
-38 72 -36 5 5 -21 145 -28 145 -3 -1 -25 -12 -50 -26z"/>
</g>
</svg>
